<mxfile host="65bd71144e">
    <diagram id="1T5_4VG_Q5D8CNUmCA6r" name="design">
        <mxGraphModel dx="1707" dy="536" grid="1" gridSize="10" guides="1" tooltips="1" connect="1" arrows="1" fold="1" page="1" pageScale="1" pageWidth="827" pageHeight="1169" background="#283618" math="0" shadow="0">
            <root>
                <mxCell id="0"/>
                <mxCell id="1" parent="0"/>
                <mxCell id="2" value="Server" style="html=1;fontFamily=Courier New;sketch=1;rounded=1;fillColor=#BC6C25;strokeColor=#DDA15E;fontColor=#FEFAE0;" parent="1" vertex="1">
                    <mxGeometry x="280" y="240" width="360" height="80" as="geometry"/>
                </mxCell>
                <mxCell id="3" value="Resourse" style="html=1;fontFamily=Courier New;sketch=1;rounded=1;fillColor=#BC6C25;strokeColor=#DDA15E;fontColor=#FEFAE0;" parent="1" vertex="1">
                    <mxGeometry x="190" y="400" width="80" height="36" as="geometry"/>
                </mxCell>
                <mxCell id="4" value="Response" style="html=1;fontFamily=Courier New;sketch=1;rounded=1;fillColor=#BC6C25;strokeColor=#DDA15E;fontColor=#FEFAE0;" parent="1" vertex="1">
                    <mxGeometry x="280" y="400" width="81" height="40" as="geometry"/>
                </mxCell>
                <mxCell id="5" value="Request" style="html=1;fontFamily=Courier New;sketch=1;rounded=1;fillColor=#BC6C25;strokeColor=#DDA15E;fontColor=#FEFAE0;" parent="1" vertex="1">
                    <mxGeometry x="380" y="400" width="80" height="40" as="geometry"/>
                </mxCell>
                <mxCell id="6" value="Client" style="html=1;fontFamily=Courier New;sketch=1;rounded=1;fillColor=#BC6C25;strokeColor=#DDA15E;fontColor=#FEFAE0;" parent="1" vertex="1">
                    <mxGeometry x="280" y="460" width="180" height="40" as="geometry"/>
                </mxCell>
                <mxCell id="HjSw7UoR1wq0wlLZBRSG-6" value="" style="rhombus;whiteSpace=wrap;html=1;fontFamily=Courier New;sketch=1;rounded=1;fillColor=#BC6C25;strokeColor=#DDA15E;fontColor=#FEFAE0;" parent="1" vertex="1">
                    <mxGeometry x="-350" y="430" width="160" height="80" as="geometry"/>
                </mxCell>
                <mxCell id="bw6OvjQXMOI57enWUmNW-6" value="Location" style="html=1;fontFamily=Courier New;sketch=1;rounded=1;fillColor=#BC6C25;strokeColor=#DDA15E;fontColor=#FEFAE0;" parent="1" vertex="1">
                    <mxGeometry x="590" y="255" width="110" height="50" as="geometry"/>
                </mxCell>
                <mxCell id="mtIYFOBP5mnuT9cVWYTm-6" value="" style="ellipse;whiteSpace=wrap;html=1;aspect=fixed;sketch=1;rounded=1;fillColor=#BC6C25;strokeColor=#DDA15E;fontColor=#FEFAE0;" parent="1" vertex="1">
                    <mxGeometry x="-330" y="350" width="80" height="80" as="geometry"/>
                </mxCell>
                <mxCell id="CLpE7BCsz6NFtkSLQQJi-6" value="cgi" style="html=1;fontFamily=Courier New;sketch=1;rounded=1;fillColor=#BC6C25;strokeColor=#DDA15E;fontColor=#FEFAE0;" parent="1" vertex="1">
                    <mxGeometry x="510" y="400" width="100" height="40" as="geometry"/>
                </mxCell>
                <mxCell id="bw6OvjQXMOI57enWUmNW-9" value="Config file" style="rhombus;whiteSpace=wrap;html=1;fontFamily=Courier New;sketch=1;rounded=1;fillColor=#BC6C25;strokeColor=#DDA15E;fontColor=#FEFAE0;" parent="1" vertex="1">
                    <mxGeometry x="50" y="80" width="160" height="70" as="geometry"/>
                </mxCell>
                <mxCell id="mtIYFOBP5mnuT9cVWYTm-19" value="" style="endArrow=classic;html=1;sketch=1;labelBackgroundColor=#283618;strokeColor=#DDA15E;fontColor=#FEFAE0;" parent="1" edge="1">
                    <mxGeometry relative="1" as="geometry">
                        <mxPoint x="-320" y="540" as="sourcePoint"/>
                        <mxPoint x="-240" y="540" as="targetPoint"/>
                    </mxGeometry>
                </mxCell>
                <mxCell id="mtIYFOBP5mnuT9cVWYTm-20" value="Label" style="edgeLabel;resizable=0;html=1;align=center;verticalAlign=middle;sketch=1;rounded=1;labelBackgroundColor=#283618;fontColor=#FEFAE0;" parent="mtIYFOBP5mnuT9cVWYTm-19" connectable="0" vertex="1">
                    <mxGeometry relative="1" as="geometry"/>
                </mxCell>
                <mxCell id="mtIYFOBP5mnuT9cVWYTm-21" value="" style="endArrow=classic;html=1;sketch=1;labelBackgroundColor=#283618;strokeColor=#DDA15E;fontColor=#FEFAE0;" parent="1" edge="1">
                    <mxGeometry relative="1" as="geometry">
                        <mxPoint x="-240" y="573" as="sourcePoint"/>
                        <mxPoint x="-320" y="573" as="targetPoint"/>
                        <Array as="points">
                            <mxPoint x="-240" y="573"/>
                        </Array>
                    </mxGeometry>
                </mxCell>
                <mxCell id="mtIYFOBP5mnuT9cVWYTm-22" value="Label" style="edgeLabel;resizable=0;html=1;align=center;verticalAlign=middle;sketch=1;rounded=1;labelBackgroundColor=#283618;fontColor=#FEFAE0;" parent="mtIYFOBP5mnuT9cVWYTm-21" connectable="0" vertex="1">
                    <mxGeometry relative="1" as="geometry"/>
                </mxCell>
                <mxCell id="mtIYFOBP5mnuT9cVWYTm-23" value="ServerMG" style="html=1;fontFamily=Courier New;sketch=1;rounded=1;fillColor=#BC6C25;strokeColor=#DDA15E;fontColor=#FEFAE0;" parent="1" vertex="1">
                    <mxGeometry x="60" y="240" width="120" height="80" as="geometry"/>
                </mxCell>
                <mxCell id="IygWYnOgdm40oRZ5j5jK-6" value="서버들 관리" style="endArrow=classic;html=1;sketch=1;labelBackgroundColor=#283618;strokeColor=#DDA15E;fontColor=#FEFAE0;" parent="1" source="mtIYFOBP5mnuT9cVWYTm-23" target="2" edge="1">
                    <mxGeometry relative="1" as="geometry">
                        <mxPoint x="150" y="360" as="sourcePoint"/>
                        <mxPoint x="240" y="360" as="targetPoint"/>
                    </mxGeometry>
                </mxCell>
                <mxCell id="hdgZn3phFiqipSm-WkCm-6" value="" style="endArrow=classic;html=1;sketch=1;labelBackgroundColor=#283618;strokeColor=#DDA15E;fontColor=#FEFAE0;" parent="1" source="mtIYFOBP5mnuT9cVWYTm-23" edge="1">
                    <mxGeometry relative="1" as="geometry">
                        <mxPoint x="180" y="239.31" as="sourcePoint"/>
                        <mxPoint x="270" y="239.31" as="targetPoint"/>
                    </mxGeometry>
                </mxCell>
                <mxCell id="hdgZn3phFiqipSm-WkCm-7" value="서버 생성" style="edgeLabel;resizable=0;html=1;align=center;verticalAlign=middle;sketch=1;rounded=1;labelBackgroundColor=#283618;fontColor=#FEFAE0;" parent="hdgZn3phFiqipSm-WkCm-6" connectable="0" vertex="1">
                    <mxGeometry relative="1" as="geometry"/>
                </mxCell>
                <mxCell id="nLenbkaLiGC611CAnMhk-6" value="" style="endArrow=classic;html=1;sketch=1;labelBackgroundColor=#283618;strokeColor=#DDA15E;fontColor=#FEFAE0;" parent="1" edge="1">
                    <mxGeometry relative="1" as="geometry">
                        <mxPoint x="-200" y="520" as="sourcePoint"/>
                        <mxPoint x="-200" y="600" as="targetPoint"/>
                    </mxGeometry>
                </mxCell>
                <mxCell id="nLenbkaLiGC611CAnMhk-7" value="Label" style="edgeLabel;resizable=0;html=1;align=center;verticalAlign=middle;sketch=1;rounded=1;labelBackgroundColor=#283618;fontColor=#FEFAE0;" parent="nLenbkaLiGC611CAnMhk-6" connectable="0" vertex="1">
                    <mxGeometry relative="1" as="geometry"/>
                </mxCell>
                <mxCell id="nLenbkaLiGC611CAnMhk-8" value="" style="endArrow=classic;html=1;sketch=1;labelBackgroundColor=#283618;strokeColor=#DDA15E;fontColor=#FEFAE0;" parent="1" edge="1">
                    <mxGeometry relative="1" as="geometry">
                        <mxPoint x="-170" y="600" as="sourcePoint"/>
                        <mxPoint x="-170" y="520" as="targetPoint"/>
                    </mxGeometry>
                </mxCell>
                <mxCell id="nLenbkaLiGC611CAnMhk-9" value="Label" style="edgeLabel;resizable=0;html=1;align=center;verticalAlign=middle;sketch=1;rounded=1;labelBackgroundColor=#283618;fontColor=#FEFAE0;" parent="nLenbkaLiGC611CAnMhk-8" connectable="0" vertex="1">
                    <mxGeometry relative="1" as="geometry"/>
                </mxCell>
                <mxCell id="IygWYnOgdm40oRZ5j5jK-9" value="config file 파싱" style="text;strokeColor=none;fillColor=none;align=left;verticalAlign=top;spacingLeft=4;spacingRight=4;overflow=hidden;rotatable=0;points=[[0,0.5],[1,0.5]];portConstraint=eastwest;sketch=1;rounded=1;fontColor=#FEFAE0;" parent="1" vertex="1">
                    <mxGeometry x="70" y="320" width="100" height="26" as="geometry"/>
                </mxCell>
                <mxCell id="nLenbkaLiGC611CAnMhk-10" value="" style="endArrow=classic;html=1;sketch=1;exitX=0.389;exitY=1.025;exitDx=0;exitDy=0;exitPerimeter=0;labelBackgroundColor=#283618;strokeColor=#DDA15E;fontColor=#FEFAE0;" parent="1" source="2" edge="1">
                    <mxGeometry relative="1" as="geometry">
                        <mxPoint x="420" y="400" as="sourcePoint"/>
                        <mxPoint x="420" y="400" as="targetPoint"/>
                    </mxGeometry>
                </mxCell>
                <mxCell id="nLenbkaLiGC611CAnMhk-11" value="accept" style="edgeLabel;resizable=0;html=1;align=center;verticalAlign=middle;sketch=1;rounded=1;labelBackgroundColor=#283618;fontColor=#FEFAE0;" parent="nLenbkaLiGC611CAnMhk-10" connectable="0" vertex="1">
                    <mxGeometry relative="1" as="geometry"/>
                </mxCell>
                <mxCell id="nLenbkaLiGC611CAnMhk-12" value="" style="endArrow=classic;html=1;sketch=1;labelBackgroundColor=#283618;strokeColor=#DDA15E;fontColor=#FEFAE0;" parent="1" edge="1">
                    <mxGeometry relative="1" as="geometry">
                        <mxPoint x="320.3" y="320" as="sourcePoint"/>
                        <mxPoint x="320.3" y="400" as="targetPoint"/>
                    </mxGeometry>
                </mxCell>
                <mxCell id="nLenbkaLiGC611CAnMhk-13" value="Label" style="edgeLabel;resizable=0;html=1;align=center;verticalAlign=middle;sketch=1;rounded=1;labelBackgroundColor=#283618;fontColor=#FEFAE0;" parent="nLenbkaLiGC611CAnMhk-12" connectable="0" vertex="1">
                    <mxGeometry relative="1" as="geometry"/>
                </mxCell>
                <mxCell id="nLenbkaLiGC611CAnMhk-14" value="" style="endArrow=classic;html=1;sketch=1;labelBackgroundColor=#283618;strokeColor=#DDA15E;fontColor=#FEFAE0;" parent="1" edge="1">
                    <mxGeometry relative="1" as="geometry">
                        <mxPoint x="560" y="320" as="sourcePoint"/>
                        <mxPoint x="560" y="400" as="targetPoint"/>
                    </mxGeometry>
                </mxCell>
                <mxCell id="nLenbkaLiGC611CAnMhk-15" value="fork" style="edgeLabel;resizable=0;html=1;align=center;verticalAlign=middle;sketch=1;rounded=1;labelBackgroundColor=#283618;fontColor=#FEFAE0;" parent="nLenbkaLiGC611CAnMhk-14" connectable="0" vertex="1">
                    <mxGeometry relative="1" as="geometry"/>
                </mxCell>
                <mxCell id="nLenbkaLiGC611CAnMhk-16" value="" style="endArrow=classic;html=1;sketch=1;labelBackgroundColor=#283618;strokeColor=#DDA15E;fontColor=#FEFAE0;" parent="1" edge="1">
                    <mxGeometry relative="1" as="geometry">
                        <mxPoint x="550" y="450" as="sourcePoint"/>
                        <mxPoint x="470" y="480" as="targetPoint"/>
                    </mxGeometry>
                </mxCell>
                <mxCell id="nLenbkaLiGC611CAnMhk-17" value="return" style="edgeLabel;resizable=0;html=1;align=center;verticalAlign=middle;sketch=1;rounded=1;labelBackgroundColor=#283618;fontColor=#FEFAE0;" parent="nLenbkaLiGC611CAnMhk-16" connectable="0" vertex="1">
                    <mxGeometry relative="1" as="geometry"/>
                </mxCell>
                <mxCell id="2e0hI9DMoklRfPu7lm1f-7" value="필요한 요소들" style="swimlane;fontStyle=0;childLayout=stackLayout;horizontal=1;startSize=26;fillColor=none;horizontalStack=0;resizeParent=1;resizeParentMax=0;resizeLast=0;collapsible=1;marginBottom=0;strokeColor=#DDA15E;fontColor=#FEFAE0;" parent="1" vertex="1">
                    <mxGeometry y="520" width="180" height="104" as="geometry"/>
                </mxCell>
                <mxCell id="2e0hI9DMoklRfPu7lm1f-8" value="Method" style="text;strokeColor=none;fillColor=none;align=left;verticalAlign=top;spacingLeft=4;spacingRight=4;overflow=hidden;rotatable=0;points=[[0,0.5],[1,0.5]];portConstraint=eastwest;fontColor=#FEFAE0;" parent="2e0hI9DMoklRfPu7lm1f-7" vertex="1">
                    <mxGeometry y="26" width="180" height="26" as="geometry"/>
                </mxCell>
                <mxCell id="2e0hI9DMoklRfPu7lm1f-9" value="MIME" style="text;strokeColor=none;fillColor=none;align=left;verticalAlign=top;spacingLeft=4;spacingRight=4;overflow=hidden;rotatable=0;points=[[0,0.5],[1,0.5]];portConstraint=eastwest;fontColor=#FEFAE0;" parent="2e0hI9DMoklRfPu7lm1f-7" vertex="1">
                    <mxGeometry y="52" width="180" height="26" as="geometry"/>
                </mxCell>
                <mxCell id="2e0hI9DMoklRfPu7lm1f-10" value="Response Code:Message" style="text;strokeColor=none;fillColor=none;align=left;verticalAlign=top;spacingLeft=4;spacingRight=4;overflow=hidden;rotatable=0;points=[[0,0.5],[1,0.5]];portConstraint=eastwest;fontColor=#FEFAE0;" parent="2e0hI9DMoklRfPu7lm1f-7" vertex="1">
                    <mxGeometry y="78" width="180" height="26" as="geometry"/>
                </mxCell>
            </root>
        </mxGraphModel>
    </diagram>
    <diagram id="fTU8bduiC33wtUSBYS8Q" name="webserv class">
        <mxGraphModel dx="1724" dy="590" grid="1" gridSize="10" guides="1" tooltips="1" connect="1" arrows="1" fold="1" page="1" pageScale="1" pageWidth="827" pageHeight="1169" background="#283618" math="0" shadow="0">
            <root>
                <mxCell id="AuqJdW4A9jtWU9_Es0bh-0"/>
                <mxCell id="AuqJdW4A9jtWU9_Es0bh-1" parent="AuqJdW4A9jtWU9_Es0bh-0"/>
                <mxCell id="z06n2Tm9NocWIqekACWy-0" value="Server" style="swimlane;fontStyle=1;align=center;verticalAlign=top;childLayout=stackLayout;horizontal=1;startSize=26;horizontalStack=0;resizeParent=1;resizeParentMax=0;resizeLast=0;collapsible=1;marginBottom=0;fontFamily=Courier New;fillColor=#BC6C25;strokeColor=#DDA15E;fontColor=#FEFAE0;sketch=1;" parent="AuqJdW4A9jtWU9_Es0bh-1" vertex="1">
                    <mxGeometry x="40" y="160" width="320" height="242" as="geometry"/>
                </mxCell>
                <mxCell id="z06n2Tm9NocWIqekACWy-4" value="+ socket_fd : int" style="text;strokeColor=none;fillColor=none;align=left;verticalAlign=top;spacingLeft=4;spacingRight=4;overflow=hidden;rotatable=0;points=[[0,0.5],[1,0.5]];portConstraint=eastwest;fontFamily=Courier New;fontColor=#FEFAE0;sketch=1;" parent="z06n2Tm9NocWIqekACWy-0" vertex="1">
                    <mxGeometry y="26" width="320" height="26" as="geometry"/>
                </mxCell>
                <mxCell id="z06n2Tm9NocWIqekACWy-1" value="+ ip: string" style="text;strokeColor=none;fillColor=none;align=left;verticalAlign=top;spacingLeft=4;spacingRight=4;overflow=hidden;rotatable=0;points=[[0,0.5],[1,0.5]];portConstraint=eastwest;fontFamily=Courier New;fontColor=#FEFAE0;sketch=1;" parent="z06n2Tm9NocWIqekACWy-0" vertex="1">
                    <mxGeometry y="52" width="320" height="26" as="geometry"/>
                </mxCell>
                <mxCell id="z06n2Tm9NocWIqekACWy-2" value="+ port: unsigned int" style="text;strokeColor=none;fillColor=none;align=left;verticalAlign=top;spacingLeft=4;spacingRight=4;overflow=hidden;rotatable=0;points=[[0,0.5],[1,0.5]];portConstraint=eastwest;fontFamily=Courier New;fontColor=#FEFAE0;sketch=1;" parent="z06n2Tm9NocWIqekACWy-0" vertex="1">
                    <mxGeometry y="78" width="320" height="26" as="geometry"/>
                </mxCell>
                <mxCell id="z06n2Tm9NocWIqekACWy-3" value="+ server_name: string" style="text;strokeColor=none;fillColor=none;align=left;verticalAlign=top;spacingLeft=4;spacingRight=4;overflow=hidden;rotatable=0;points=[[0,0.5],[1,0.5]];portConstraint=eastwest;fontFamily=Courier New;fontColor=#FEFAE0;sketch=1;" parent="z06n2Tm9NocWIqekACWy-0" vertex="1">
                    <mxGeometry y="104" width="320" height="26" as="geometry"/>
                </mxCell>
                <mxCell id="z06n2Tm9NocWIqekACWy-6" value="+ locations: map&lt;path, Location&gt;" style="text;strokeColor=none;fillColor=none;align=left;verticalAlign=top;spacingLeft=4;spacingRight=4;overflow=hidden;rotatable=0;points=[[0,0.5],[1,0.5]];portConstraint=eastwest;fontFamily=Courier New;fontColor=#FEFAE0;sketch=1;" parent="z06n2Tm9NocWIqekACWy-0" vertex="1">
                    <mxGeometry y="130" width="320" height="26" as="geometry"/>
                </mxCell>
                <mxCell id="GuZfLkl8GDGf7QXMjjRK-16" value="+ error_page: map&lt;int, string&gt;" style="text;strokeColor=none;fillColor=none;align=left;verticalAlign=top;spacingLeft=4;spacingRight=4;overflow=hidden;rotatable=0;points=[[0,0.5],[1,0.5]];portConstraint=eastwest;fontFamily=Courier New;fontColor=#FEFAE0;sketch=1;" vertex="1" parent="z06n2Tm9NocWIqekACWy-0">
                    <mxGeometry y="156" width="320" height="26" as="geometry"/>
                </mxCell>
                <mxCell id="z06n2Tm9NocWIqekACWy-7" value="" style="line;strokeWidth=1;fillColor=none;align=left;verticalAlign=middle;spacingTop=-1;spacingLeft=3;spacingRight=3;rotatable=0;labelPosition=right;points=[];portConstraint=eastwest;fontFamily=Courier New;labelBackgroundColor=#283618;strokeColor=#DDA15E;fontColor=#FEFAE0;sketch=1;" parent="z06n2Tm9NocWIqekACWy-0" vertex="1">
                    <mxGeometry y="182" width="320" height="8" as="geometry"/>
                </mxCell>
                <mxCell id="z06n2Tm9NocWIqekACWy-10" value="+ make_response(req : Request) : Response" style="text;strokeColor=none;fillColor=none;align=left;verticalAlign=top;spacingLeft=4;spacingRight=4;overflow=hidden;rotatable=0;points=[[0,0.5],[1,0.5]];portConstraint=eastwest;fontFamily=Courier New;fontColor=#FEFAE0;sketch=1;" parent="z06n2Tm9NocWIqekACWy-0" vertex="1">
                    <mxGeometry y="190" width="320" height="26" as="geometry"/>
                </mxCell>
                <mxCell id="hRlce37XFn2DRtzkO93b-6" value="location 정보로 error check, 응답 메시지 만들기" style="text;strokeColor=none;fillColor=none;align=left;verticalAlign=top;spacingLeft=4;spacingRight=4;overflow=hidden;rotatable=0;points=[[0,0.5],[1,0.5]];portConstraint=eastwest;fontFamily=Courier New;fontColor=#FEFAE0;sketch=1;" vertex="1" parent="z06n2Tm9NocWIqekACWy-0">
                    <mxGeometry y="216" width="320" height="26" as="geometry"/>
                </mxCell>
                <mxCell id="z06n2Tm9NocWIqekACWy-11" value="Request" style="swimlane;fontStyle=1;align=center;verticalAlign=top;childLayout=stackLayout;horizontal=1;startSize=26;horizontalStack=0;resizeParent=1;resizeParentMax=0;resizeLast=0;collapsible=1;marginBottom=0;fontFamily=Courier New;fillColor=#BC6C25;strokeColor=#DDA15E;fontColor=#FEFAE0;sketch=1;" parent="AuqJdW4A9jtWU9_Es0bh-1" vertex="1">
                    <mxGeometry x="60" y="780" width="300" height="160" as="geometry"/>
                </mxCell>
                <mxCell id="z06n2Tm9NocWIqekACWy-12" value="+ method: enum" style="text;strokeColor=none;fillColor=none;align=left;verticalAlign=top;spacingLeft=4;spacingRight=4;overflow=hidden;rotatable=0;points=[[0,0.5],[1,0.5]];portConstraint=eastwest;fontFamily=Courier New;fontColor=#FEFAE0;sketch=1;" parent="z06n2Tm9NocWIqekACWy-11" vertex="1">
                    <mxGeometry y="26" width="300" height="22" as="geometry"/>
                </mxCell>
                <mxCell id="z06n2Tm9NocWIqekACWy-13" value="+ uri : string" style="text;strokeColor=none;fillColor=none;align=left;verticalAlign=top;spacingLeft=4;spacingRight=4;overflow=hidden;rotatable=0;points=[[0,0.5],[1,0.5]];portConstraint=eastwest;fontFamily=Courier New;fontColor=#FEFAE0;sketch=1;" parent="z06n2Tm9NocWIqekACWy-11" vertex="1">
                    <mxGeometry y="48" width="300" height="26" as="geometry"/>
                </mxCell>
                <mxCell id="z06n2Tm9NocWIqekACWy-14" value="+ http_version : string = &quot;HTTP/1.1&quot;" style="text;strokeColor=none;fillColor=none;align=left;verticalAlign=top;spacingLeft=4;spacingRight=4;overflow=hidden;rotatable=0;points=[[0,0.5],[1,0.5]];portConstraint=eastwest;fontFamily=Courier New;fontColor=#FEFAE0;sketch=1;" parent="z06n2Tm9NocWIqekACWy-11" vertex="1">
                    <mxGeometry y="74" width="300" height="26" as="geometry"/>
                </mxCell>
                <mxCell id="z06n2Tm9NocWIqekACWy-15" value="+ header : map&lt;string, string&gt;" style="text;strokeColor=none;fillColor=none;align=left;verticalAlign=top;spacingLeft=4;spacingRight=4;overflow=hidden;rotatable=0;points=[[0,0.5],[1,0.5]];portConstraint=eastwest;fontFamily=Courier New;fontColor=#FEFAE0;sketch=1;" parent="z06n2Tm9NocWIqekACWy-11" vertex="1">
                    <mxGeometry y="100" width="300" height="26" as="geometry"/>
                </mxCell>
                <mxCell id="z06n2Tm9NocWIqekACWy-16" value="+ body : string" style="text;strokeColor=none;fillColor=none;align=left;verticalAlign=top;spacingLeft=4;spacingRight=4;overflow=hidden;rotatable=0;points=[[0,0.5],[1,0.5]];portConstraint=eastwest;fontFamily=Courier New;fontColor=#FEFAE0;sketch=1;" parent="z06n2Tm9NocWIqekACWy-11" vertex="1">
                    <mxGeometry y="126" width="300" height="26" as="geometry"/>
                </mxCell>
                <mxCell id="z06n2Tm9NocWIqekACWy-18" value="" style="line;strokeWidth=1;fillColor=none;align=left;verticalAlign=middle;spacingTop=-1;spacingLeft=3;spacingRight=3;rotatable=0;labelPosition=right;points=[];portConstraint=eastwest;fontFamily=Courier New;labelBackgroundColor=#283618;strokeColor=#DDA15E;fontColor=#FEFAE0;sketch=1;" parent="z06n2Tm9NocWIqekACWy-11" vertex="1">
                    <mxGeometry y="152" width="300" height="8" as="geometry"/>
                </mxCell>
                <mxCell id="g-DbUcS__fLuWGJsb0BS-19" style="edgeStyle=orthogonalEdgeStyle;rounded=0;orthogonalLoop=1;jettySize=auto;html=1;endArrow=none;endFill=0;startArrow=none;" edge="1" parent="AuqJdW4A9jtWU9_Es0bh-1" source="hWmXG3tr4zKJoYow7AVW-3" target="g-DbUcS__fLuWGJsb0BS-8">
                    <mxGeometry relative="1" as="geometry">
                        <Array as="points">
                            <mxPoint x="520" y="683"/>
                        </Array>
                    </mxGeometry>
                </mxCell>
                <mxCell id="z06n2Tm9NocWIqekACWy-20" value="Client" style="swimlane;fontStyle=1;align=center;verticalAlign=top;childLayout=stackLayout;horizontal=1;startSize=26;horizontalStack=0;resizeParent=1;resizeParentMax=0;resizeLast=0;collapsible=1;marginBottom=0;fontFamily=Courier New;fillColor=#BC6C25;strokeColor=#DDA15E;fontColor=#FEFAE0;sketch=1;" parent="AuqJdW4A9jtWU9_Es0bh-1" vertex="1">
                    <mxGeometry x="40" y="440" width="320" height="190" as="geometry"/>
                </mxCell>
                <mxCell id="z06n2Tm9NocWIqekACWy-21" value="+ socket_fd : int" style="text;strokeColor=none;fillColor=none;align=left;verticalAlign=top;spacingLeft=4;spacingRight=4;overflow=hidden;rotatable=0;points=[[0,0.5],[1,0.5]];portConstraint=eastwest;fontFamily=Courier New;fontColor=#FEFAE0;sketch=1;" parent="z06n2Tm9NocWIqekACWy-20" vertex="1">
                    <mxGeometry y="26" width="320" height="26" as="geometry"/>
                </mxCell>
                <mxCell id="g-DbUcS__fLuWGJsb0BS-17" value="+ reader : RawRequestReader" style="text;strokeColor=none;fillColor=none;align=left;verticalAlign=top;spacingLeft=4;spacingRight=4;overflow=hidden;rotatable=0;points=[[0,0.5],[1,0.5]];portConstraint=eastwest;fontFamily=Courier New;fontColor=#FEFAE0;sketch=1;" vertex="1" parent="z06n2Tm9NocWIqekACWy-20">
                    <mxGeometry y="52" width="320" height="26" as="geometry"/>
                </mxCell>
                <mxCell id="z06n2Tm9NocWIqekACWy-23" value="+ response : Response" style="text;strokeColor=none;fillColor=none;align=left;verticalAlign=top;spacingLeft=4;spacingRight=4;overflow=hidden;rotatable=0;points=[[0,0.5],[1,0.5]];portConstraint=eastwest;fontFamily=Courier New;fontColor=#FEFAE0;sketch=1;" parent="z06n2Tm9NocWIqekACWy-20" vertex="1">
                    <mxGeometry y="78" width="320" height="26" as="geometry"/>
                </mxCell>
                <mxCell id="z06n2Tm9NocWIqekACWy-24" value="+ last_time : unsigned long" style="text;strokeColor=none;fillColor=none;align=left;verticalAlign=top;spacingLeft=4;spacingRight=4;overflow=hidden;rotatable=0;points=[[0,0.5],[1,0.5]];portConstraint=eastwest;fontFamily=Courier New;fontColor=#FEFAE0;sketch=1;" parent="z06n2Tm9NocWIqekACWy-20" vertex="1">
                    <mxGeometry y="104" width="320" height="26" as="geometry"/>
                </mxCell>
                <mxCell id="g-DbUcS__fLuWGJsb0BS-18" value="+ status : int // 클라이언트 상태?" style="text;strokeColor=none;fillColor=none;align=left;verticalAlign=top;spacingLeft=4;spacingRight=4;overflow=hidden;rotatable=0;points=[[0,0.5],[1,0.5]];portConstraint=eastwest;fontFamily=Courier New;fontColor=#FEFAE0;sketch=1;" vertex="1" parent="z06n2Tm9NocWIqekACWy-20">
                    <mxGeometry y="130" width="320" height="26" as="geometry"/>
                </mxCell>
                <mxCell id="z06n2Tm9NocWIqekACWy-25" value="" style="line;strokeWidth=1;fillColor=none;align=left;verticalAlign=middle;spacingTop=-1;spacingLeft=3;spacingRight=3;rotatable=0;labelPosition=right;points=[];portConstraint=eastwest;fontFamily=Courier New;labelBackgroundColor=#283618;strokeColor=#DDA15E;fontColor=#FEFAE0;sketch=1;" parent="z06n2Tm9NocWIqekACWy-20" vertex="1">
                    <mxGeometry y="156" width="320" height="8" as="geometry"/>
                </mxCell>
                <mxCell id="jj6iGBeKpzO3xGgjYWHo-4" value="+ receive_request() : int" style="text;strokeColor=none;fillColor=none;align=left;verticalAlign=top;spacingLeft=4;spacingRight=4;overflow=hidden;rotatable=0;points=[[0,0.5],[1,0.5]];portConstraint=eastwest;fontFamily=Courier New;fontColor=#FEFAE0;sketch=1;" vertex="1" parent="z06n2Tm9NocWIqekACWy-20">
                    <mxGeometry y="164" width="320" height="26" as="geometry"/>
                </mxCell>
                <mxCell id="z06n2Tm9NocWIqekACWy-27" value="Resource" style="swimlane;fontStyle=1;align=center;verticalAlign=top;childLayout=stackLayout;horizontal=1;startSize=26;horizontalStack=0;resizeParent=1;resizeParentMax=0;resizeLast=0;collapsible=1;marginBottom=0;fontFamily=Courier New;fillColor=#BC6C25;strokeColor=#DDA15E;fontColor=#FEFAE0;sketch=1;" parent="AuqJdW4A9jtWU9_Es0bh-1" vertex="1">
                    <mxGeometry x="1130" y="310" width="260" height="138" as="geometry"/>
                </mxCell>
                <mxCell id="z06n2Tm9NocWIqekACWy-28" value="+ MIME" style="text;strokeColor=none;fillColor=none;align=left;verticalAlign=top;spacingLeft=4;spacingRight=4;overflow=hidden;rotatable=0;points=[[0,0.5],[1,0.5]];portConstraint=eastwest;fontFamily=Courier New;fontColor=#FEFAE0;sketch=1;" parent="z06n2Tm9NocWIqekACWy-27" vertex="1">
                    <mxGeometry y="26" width="260" height="26" as="geometry"/>
                </mxCell>
                <mxCell id="z06n2Tm9NocWIqekACWy-29" value="+ item: attribute" style="text;strokeColor=none;fillColor=none;align=left;verticalAlign=top;spacingLeft=4;spacingRight=4;overflow=hidden;rotatable=0;points=[[0,0.5],[1,0.5]];portConstraint=eastwest;fontFamily=Courier New;fontColor=#FEFAE0;sketch=1;" parent="z06n2Tm9NocWIqekACWy-27" vertex="1">
                    <mxGeometry y="52" width="260" height="26" as="geometry"/>
                </mxCell>
                <mxCell id="z06n2Tm9NocWIqekACWy-30" value="" style="line;strokeWidth=1;fillColor=none;align=left;verticalAlign=middle;spacingTop=-1;spacingLeft=3;spacingRight=3;rotatable=0;labelPosition=right;points=[];portConstraint=eastwest;fontFamily=Courier New;labelBackgroundColor=#283618;strokeColor=#DDA15E;fontColor=#FEFAE0;sketch=1;" parent="z06n2Tm9NocWIqekACWy-27" vertex="1">
                    <mxGeometry y="78" width="260" height="8" as="geometry"/>
                </mxCell>
                <mxCell id="z06n2Tm9NocWIqekACWy-31" value="+ getMIME(void) : string" style="text;strokeColor=none;fillColor=none;align=left;verticalAlign=top;spacingLeft=4;spacingRight=4;overflow=hidden;rotatable=0;points=[[0,0.5],[1,0.5]];portConstraint=eastwest;fontFamily=Courier New;fontColor=#FEFAE0;sketch=1;" parent="z06n2Tm9NocWIqekACWy-27" vertex="1">
                    <mxGeometry y="86" width="260" height="26" as="geometry"/>
                </mxCell>
                <mxCell id="z06n2Tm9NocWIqekACWy-32" value="+ export(void) : char*" style="text;strokeColor=none;fillColor=none;align=left;verticalAlign=top;spacingLeft=4;spacingRight=4;overflow=hidden;rotatable=0;points=[[0,0.5],[1,0.5]];portConstraint=eastwest;fontFamily=Courier New;fontColor=#FEFAE0;sketch=1;" parent="z06n2Tm9NocWIqekACWy-27" vertex="1">
                    <mxGeometry y="112" width="260" height="26" as="geometry"/>
                </mxCell>
                <mxCell id="z06n2Tm9NocWIqekACWy-34" value="Response" style="swimlane;fontStyle=1;align=center;verticalAlign=top;childLayout=stackLayout;horizontal=1;startSize=26;horizontalStack=0;resizeParent=1;resizeParentMax=0;resizeLast=0;collapsible=1;marginBottom=0;fontFamily=Courier New;fillColor=#BC6C25;strokeColor=#DDA15E;fontColor=#FEFAE0;sketch=1;" parent="AuqJdW4A9jtWU9_Es0bh-1" vertex="1">
                    <mxGeometry x="400" y="780" width="300" height="190" as="geometry"/>
                </mxCell>
                <mxCell id="z06n2Tm9NocWIqekACWy-36" value="+ code : unsigned int" style="text;strokeColor=none;fillColor=none;align=left;verticalAlign=top;spacingLeft=4;spacingRight=4;overflow=hidden;rotatable=0;points=[[0,0.5],[1,0.5]];portConstraint=eastwest;fontFamily=Courier New;fontColor=#FEFAE0;sketch=1;" parent="z06n2Tm9NocWIqekACWy-34" vertex="1">
                    <mxGeometry y="26" width="300" height="26" as="geometry"/>
                </mxCell>
                <mxCell id="z06n2Tm9NocWIqekACWy-37" value="+ message : string" style="text;strokeColor=none;fillColor=none;align=left;verticalAlign=top;spacingLeft=4;spacingRight=4;overflow=hidden;rotatable=0;points=[[0,0.5],[1,0.5]];portConstraint=eastwest;fontFamily=Courier New;fontColor=#FEFAE0;sketch=1;" parent="z06n2Tm9NocWIqekACWy-34" vertex="1">
                    <mxGeometry y="52" width="300" height="26" as="geometry"/>
                </mxCell>
                <mxCell id="z06n2Tm9NocWIqekACWy-35" value="+ http_version: string = &quot;HTTP/1.1&quot;" style="text;strokeColor=none;fillColor=none;align=left;verticalAlign=top;spacingLeft=4;spacingRight=4;overflow=hidden;rotatable=0;points=[[0,0.5],[1,0.5]];portConstraint=eastwest;fontFamily=Courier New;fontColor=#FEFAE0;sketch=1;" parent="z06n2Tm9NocWIqekACWy-34" vertex="1">
                    <mxGeometry y="78" width="300" height="26" as="geometry"/>
                </mxCell>
                <mxCell id="z06n2Tm9NocWIqekACWy-38" value="+ header : map&lt;string, string&gt;" style="text;strokeColor=none;fillColor=none;align=left;verticalAlign=top;spacingLeft=4;spacingRight=4;overflow=hidden;rotatable=0;points=[[0,0.5],[1,0.5]];portConstraint=eastwest;fontFamily=Courier New;fontColor=#FEFAE0;sketch=1;" parent="z06n2Tm9NocWIqekACWy-34" vertex="1">
                    <mxGeometry y="104" width="300" height="26" as="geometry"/>
                </mxCell>
                <mxCell id="z06n2Tm9NocWIqekACWy-39" value="+ resourse: Resource" style="text;strokeColor=none;fillColor=none;align=left;verticalAlign=top;spacingLeft=4;spacingRight=4;overflow=hidden;rotatable=0;points=[[0,0.5],[1,0.5]];portConstraint=eastwest;fontFamily=Courier New;fontColor=#FEFAE0;sketch=1;" parent="z06n2Tm9NocWIqekACWy-34" vertex="1">
                    <mxGeometry y="130" width="300" height="26" as="geometry"/>
                </mxCell>
                <mxCell id="z06n2Tm9NocWIqekACWy-40" value="" style="line;strokeWidth=1;fillColor=none;align=left;verticalAlign=middle;spacingTop=-1;spacingLeft=3;spacingRight=3;rotatable=0;labelPosition=right;points=[];portConstraint=eastwest;fontFamily=Courier New;labelBackgroundColor=#283618;strokeColor=#DDA15E;fontColor=#FEFAE0;sketch=1;" parent="z06n2Tm9NocWIqekACWy-34" vertex="1">
                    <mxGeometry y="156" width="300" height="8" as="geometry"/>
                </mxCell>
                <mxCell id="z06n2Tm9NocWIqekACWy-41" value="+ export(void) : char*" style="text;strokeColor=none;fillColor=none;align=left;verticalAlign=top;spacingLeft=4;spacingRight=4;overflow=hidden;rotatable=0;points=[[0,0.5],[1,0.5]];portConstraint=eastwest;fontFamily=Courier New;fontColor=#FEFAE0;sketch=1;" parent="z06n2Tm9NocWIqekACWy-34" vertex="1">
                    <mxGeometry y="164" width="300" height="26" as="geometry"/>
                </mxCell>
                <mxCell id="z06n2Tm9NocWIqekACWy-46" value="Location" style="swimlane;fontStyle=1;align=center;verticalAlign=top;childLayout=stackLayout;horizontal=1;startSize=26;horizontalStack=0;resizeParent=1;resizeParentMax=0;resizeLast=0;collapsible=1;marginBottom=0;fontFamily=Courier New;fillColor=#BC6C25;strokeColor=#DDA15E;fontColor=#FEFAE0;sketch=1;" parent="AuqJdW4A9jtWU9_Es0bh-1" vertex="1">
                    <mxGeometry x="400" y="160" width="320" height="190" as="geometry"/>
                </mxCell>
                <mxCell id="z06n2Tm9NocWIqekACWy-47" value="+ root: string" style="text;strokeColor=none;fillColor=none;align=left;verticalAlign=top;spacingLeft=4;spacingRight=4;overflow=hidden;rotatable=0;points=[[0,0.5],[1,0.5]];portConstraint=eastwest;fontFamily=Courier New;fontColor=#FEFAE0;sketch=1;" parent="z06n2Tm9NocWIqekACWy-46" vertex="1">
                    <mxGeometry y="26" width="320" height="26" as="geometry"/>
                </mxCell>
                <mxCell id="z06n2Tm9NocWIqekACWy-48" value="+ index: vector&lt;string&gt;" style="text;strokeColor=none;fillColor=none;align=left;verticalAlign=top;spacingLeft=4;spacingRight=4;overflow=hidden;rotatable=0;points=[[0,0.5],[1,0.5]];portConstraint=eastwest;fontFamily=Courier New;fontColor=#FEFAE0;sketch=1;" parent="z06n2Tm9NocWIqekACWy-46" vertex="1">
                    <mxGeometry y="52" width="320" height="26" as="geometry"/>
                </mxCell>
                <mxCell id="z06n2Tm9NocWIqekACWy-49" value="+ allowed_method : set&lt;enum&gt;" style="text;strokeColor=none;fillColor=none;align=left;verticalAlign=top;spacingLeft=4;spacingRight=4;overflow=hidden;rotatable=0;points=[[0,0.5],[1,0.5]];portConstraint=eastwest;fontFamily=Courier New;fontColor=#FEFAE0;sketch=1;" parent="z06n2Tm9NocWIqekACWy-46" vertex="1">
                    <mxGeometry y="78" width="320" height="26" as="geometry"/>
                </mxCell>
                <mxCell id="z06n2Tm9NocWIqekACWy-50" value="+ cgi_info : map vs map&lt;set&gt;" style="text;strokeColor=none;fillColor=none;align=left;verticalAlign=top;spacingLeft=4;spacingRight=4;overflow=hidden;rotatable=0;points=[[0,0.5],[1,0.5]];portConstraint=eastwest;fontFamily=Courier New;fontColor=#FEFAE0;sketch=1;" parent="z06n2Tm9NocWIqekACWy-46" vertex="1">
                    <mxGeometry y="104" width="320" height="26" as="geometry"/>
                </mxCell>
                <mxCell id="z06n2Tm9NocWIqekACWy-51" value="+ autoindex_status : bool" style="text;strokeColor=none;fillColor=none;align=left;verticalAlign=top;spacingLeft=4;spacingRight=4;overflow=hidden;rotatable=0;points=[[0,0.5],[1,0.5]];portConstraint=eastwest;fontFamily=Courier New;fontColor=#FEFAE0;sketch=1;" parent="z06n2Tm9NocWIqekACWy-46" vertex="1">
                    <mxGeometry y="130" width="320" height="26" as="geometry"/>
                </mxCell>
                <mxCell id="z06n2Tm9NocWIqekACWy-52" value="+ error_page: map&lt;status_code, string&gt;" style="text;strokeColor=none;fillColor=none;align=left;verticalAlign=top;spacingLeft=4;spacingRight=4;overflow=hidden;rotatable=0;points=[[0,0.5],[1,0.5]];portConstraint=eastwest;fontFamily=Courier New;fontColor=#FEFAE0;sketch=1;" parent="z06n2Tm9NocWIqekACWy-46" vertex="1">
                    <mxGeometry y="156" width="320" height="26" as="geometry"/>
                </mxCell>
                <mxCell id="z06n2Tm9NocWIqekACWy-53" value="" style="line;strokeWidth=1;fillColor=none;align=left;verticalAlign=middle;spacingTop=-1;spacingLeft=3;spacingRight=3;rotatable=0;labelPosition=right;points=[];portConstraint=eastwest;fontFamily=Courier New;labelBackgroundColor=#283618;strokeColor=#DDA15E;fontColor=#FEFAE0;sketch=1;" parent="z06n2Tm9NocWIqekACWy-46" vertex="1">
                    <mxGeometry y="182" width="320" height="8" as="geometry"/>
                </mxCell>
                <mxCell id="z06n2Tm9NocWIqekACWy-56" value="ServerManager" style="swimlane;fontStyle=1;align=center;verticalAlign=top;childLayout=stackLayout;horizontal=1;startSize=26;horizontalStack=0;resizeParent=1;resizeParentMax=0;resizeLast=0;collapsible=1;marginBottom=0;fontFamily=Courier New;fillColor=#BC6C25;strokeColor=#DDA15E;fontColor=#FEFAE0;sketch=1;" parent="AuqJdW4A9jtWU9_Es0bh-1" vertex="1">
                    <mxGeometry x="-400" y="210" width="400" height="188" as="geometry"/>
                </mxCell>
                <mxCell id="z06n2Tm9NocWIqekACWy-57" value="+ servers: map&lt;pair&lt;string, int&gt;, Server&gt;" style="text;strokeColor=none;fillColor=none;align=left;verticalAlign=top;spacingLeft=4;spacingRight=4;overflow=hidden;rotatable=0;points=[[0,0.5],[1,0.5]];portConstraint=eastwest;fontFamily=Courier New;fontColor=#FEFAE0;sketch=1;" parent="z06n2Tm9NocWIqekACWy-56" vertex="1">
                    <mxGeometry y="26" width="400" height="26" as="geometry"/>
                </mxCell>
                <mxCell id="jj6iGBeKpzO3xGgjYWHo-3" value="+ clients : map&lt;int, Client&gt;" style="text;strokeColor=none;fillColor=none;align=left;verticalAlign=top;spacingLeft=4;spacingRight=4;overflow=hidden;rotatable=0;points=[[0,0.5],[1,0.5]];portConstraint=eastwest;fontFamily=Courier New;fontColor=#FEFAE0;sketch=1;" vertex="1" parent="z06n2Tm9NocWIqekACWy-56">
                    <mxGeometry y="52" width="400" height="26" as="geometry"/>
                </mxCell>
                <mxCell id="z06n2Tm9NocWIqekACWy-58" value="" style="line;strokeWidth=1;fillColor=none;align=left;verticalAlign=middle;spacingTop=-1;spacingLeft=3;spacingRight=3;rotatable=0;labelPosition=right;points=[];portConstraint=eastwest;fontFamily=Courier New;labelBackgroundColor=#283618;strokeColor=#DDA15E;fontColor=#FEFAE0;sketch=1;" parent="z06n2Tm9NocWIqekACWy-56" vertex="1">
                    <mxGeometry y="78" width="400" height="8" as="geometry"/>
                </mxCell>
                <mxCell id="z06n2Tm9NocWIqekACWy-59" value="+ ServerManager(config_file : string) // config 파싱" style="text;strokeColor=none;fillColor=none;align=left;verticalAlign=top;spacingLeft=4;spacingRight=4;overflow=hidden;rotatable=0;points=[[0,0.5],[1,0.5]];portConstraint=eastwest;fontFamily=Courier New;fontColor=#FEFAE0;sketch=1;" parent="z06n2Tm9NocWIqekACWy-56" vertex="1">
                    <mxGeometry y="86" width="400" height="26" as="geometry"/>
                </mxCell>
                <mxCell id="jj6iGBeKpzO3xGgjYWHo-1" value="+ start() : int  // kqueue 무한반복" style="text;strokeColor=none;fillColor=none;align=left;verticalAlign=top;spacingLeft=4;spacingRight=4;overflow=hidden;rotatable=0;points=[[0,0.5],[1,0.5]];portConstraint=eastwest;fontFamily=Courier New;fontColor=#FEFAE0;sketch=1;" vertex="1" parent="z06n2Tm9NocWIqekACWy-56">
                    <mxGeometry y="112" width="400" height="26" as="geometry"/>
                </mxCell>
                <mxCell id="jj6iGBeKpzO3xGgjYWHo-2" value="+ stop() : int" style="text;strokeColor=none;fillColor=none;align=left;verticalAlign=top;spacingLeft=4;spacingRight=4;overflow=hidden;rotatable=0;points=[[0,0.5],[1,0.5]];portConstraint=eastwest;fontFamily=Courier New;fontColor=#FEFAE0;sketch=1;" vertex="1" parent="z06n2Tm9NocWIqekACWy-56">
                    <mxGeometry y="138" width="400" height="24" as="geometry"/>
                </mxCell>
                <mxCell id="GsCorUQqj0XEcUCzzzjS-0" value="+ make_response(req : Request) : Response" style="text;strokeColor=none;fillColor=none;align=left;verticalAlign=top;spacingLeft=4;spacingRight=4;overflow=hidden;rotatable=0;points=[[0,0.5],[1,0.5]];portConstraint=eastwest;fontFamily=Courier New;fontColor=#FEFAE0;sketch=1;" vertex="1" parent="z06n2Tm9NocWIqekACWy-56">
                    <mxGeometry y="162" width="400" height="26" as="geometry"/>
                </mxCell>
                <mxCell id="z06n2Tm9NocWIqekACWy-62" value="cgi" style="swimlane;fontStyle=1;align=center;verticalAlign=top;childLayout=stackLayout;horizontal=1;startSize=26;horizontalStack=0;resizeParent=1;resizeParentMax=0;resizeLast=0;collapsible=1;marginBottom=0;fontFamily=Courier New;fillColor=#BC6C25;strokeColor=#DDA15E;fontColor=#FEFAE0;sketch=1;" parent="AuqJdW4A9jtWU9_Es0bh-1" vertex="1">
                    <mxGeometry x="1180" y="500" width="200" height="138" as="geometry"/>
                </mxCell>
                <mxCell id="z06n2Tm9NocWIqekACWy-63" value="+ ext : set&lt;string&gt;" style="text;strokeColor=none;fillColor=none;align=left;verticalAlign=top;spacingLeft=4;spacingRight=4;overflow=hidden;rotatable=0;points=[[0,0.5],[1,0.5]];portConstraint=eastwest;fontFamily=Courier New;fontColor=#FEFAE0;sketch=1;" parent="z06n2Tm9NocWIqekACWy-62" vertex="1">
                    <mxGeometry y="26" width="200" height="26" as="geometry"/>
                </mxCell>
                <mxCell id="z06n2Tm9NocWIqekACWy-64" value="+ program : string" style="text;strokeColor=none;fillColor=none;align=left;verticalAlign=top;spacingLeft=4;spacingRight=4;overflow=hidden;rotatable=0;points=[[0,0.5],[1,0.5]];portConstraint=eastwest;fontFamily=Courier New;fontColor=#FEFAE0;sketch=1;" parent="z06n2Tm9NocWIqekACWy-62" vertex="1">
                    <mxGeometry y="52" width="200" height="26" as="geometry"/>
                </mxCell>
                <mxCell id="z06n2Tm9NocWIqekACWy-65" value="" style="line;strokeWidth=1;fillColor=none;align=left;verticalAlign=middle;spacingTop=-1;spacingLeft=3;spacingRight=3;rotatable=0;labelPosition=right;points=[];portConstraint=eastwest;fontFamily=Courier New;labelBackgroundColor=#283618;strokeColor=#DDA15E;fontColor=#FEFAE0;sketch=1;" parent="z06n2Tm9NocWIqekACWy-62" vertex="1">
                    <mxGeometry y="78" width="200" height="8" as="geometry"/>
                </mxCell>
                <mxCell id="z06n2Tm9NocWIqekACWy-66" value="+ execute(string) : void" style="text;strokeColor=none;fillColor=none;align=left;verticalAlign=top;spacingLeft=4;spacingRight=4;overflow=hidden;rotatable=0;points=[[0,0.5],[1,0.5]];portConstraint=eastwest;fontFamily=Courier New;fontColor=#FEFAE0;sketch=1;" parent="z06n2Tm9NocWIqekACWy-62" vertex="1">
                    <mxGeometry y="86" width="200" height="26" as="geometry"/>
                </mxCell>
                <mxCell id="z06n2Tm9NocWIqekACWy-67" value="+ equal(string) : bool" style="text;strokeColor=none;fillColor=none;align=left;verticalAlign=top;spacingLeft=4;spacingRight=4;overflow=hidden;rotatable=0;points=[[0,0.5],[1,0.5]];portConstraint=eastwest;fontFamily=Courier New;fontColor=#FEFAE0;sketch=1;" parent="z06n2Tm9NocWIqekACWy-62" vertex="1">
                    <mxGeometry y="112" width="200" height="26" as="geometry"/>
                </mxCell>
                <mxCell id="g-DbUcS__fLuWGJsb0BS-6" value="" style="endArrow=diamondThin;endFill=1;endSize=24;html=1;" edge="1" parent="AuqJdW4A9jtWU9_Es0bh-1" source="z06n2Tm9NocWIqekACWy-20" target="z06n2Tm9NocWIqekACWy-56">
                    <mxGeometry width="160" relative="1" as="geometry">
                        <mxPoint x="70" y="20" as="sourcePoint"/>
                        <mxPoint x="230" y="20" as="targetPoint"/>
                        <Array as="points">
                            <mxPoint x="-201" y="530"/>
                        </Array>
                    </mxGeometry>
                </mxCell>
                <mxCell id="g-DbUcS__fLuWGJsb0BS-8" value="RawRequestReader" style="swimlane;fontStyle=1;align=center;verticalAlign=top;childLayout=stackLayout;horizontal=1;startSize=26;horizontalStack=0;resizeParent=1;resizeParentMax=0;resizeLast=0;collapsible=1;marginBottom=0;fontFamily=Courier New;fillColor=#BC6C25;strokeColor=#DDA15E;fontColor=#FEFAE0;sketch=1;" vertex="1" parent="AuqJdW4A9jtWU9_Es0bh-1">
                    <mxGeometry x="400" y="440" width="250" height="144" as="geometry"/>
                </mxCell>
                <mxCell id="g-DbUcS__fLuWGJsb0BS-13" value="+ raw_request : string" style="text;strokeColor=none;fillColor=none;align=left;verticalAlign=top;spacingLeft=4;spacingRight=4;overflow=hidden;rotatable=0;points=[[0,0.5],[1,0.5]];portConstraint=eastwest;fontFamily=Courier New;fontColor=#FEFAE0;sketch=1;" vertex="1" parent="g-DbUcS__fLuWGJsb0BS-8">
                    <mxGeometry y="26" width="250" height="26" as="geometry"/>
                </mxCell>
                <mxCell id="hRlce37XFn2DRtzkO93b-3" value="+ request : Request" style="text;strokeColor=none;fillColor=none;align=left;verticalAlign=top;spacingLeft=4;spacingRight=4;overflow=hidden;rotatable=0;points=[[0,0.5],[1,0.5]];portConstraint=eastwest;fontFamily=Courier New;fontColor=#FEFAE0;sketch=1;" vertex="1" parent="g-DbUcS__fLuWGJsb0BS-8">
                    <mxGeometry y="52" width="250" height="26" as="geometry"/>
                </mxCell>
                <mxCell id="g-DbUcS__fLuWGJsb0BS-14" value="" style="line;strokeWidth=1;fillColor=none;align=left;verticalAlign=middle;spacingTop=-1;spacingLeft=3;spacingRight=3;rotatable=0;labelPosition=right;points=[];portConstraint=eastwest;fontFamily=Courier New;labelBackgroundColor=#283618;strokeColor=#DDA15E;fontColor=#FEFAE0;sketch=1;" vertex="1" parent="g-DbUcS__fLuWGJsb0BS-8">
                    <mxGeometry y="78" width="250" height="8" as="geometry"/>
                </mxCell>
                <mxCell id="hWmXG3tr4zKJoYow7AVW-1" value="+ read_startHead() : string" style="text;strokeColor=none;fillColor=none;align=left;verticalAlign=top;spacingLeft=4;spacingRight=4;overflow=hidden;rotatable=0;points=[[0,0.5],[1,0.5]];portConstraint=eastwest;fontFamily=Courier New;fontColor=#FEFAE0;sketch=1;" vertex="1" parent="g-DbUcS__fLuWGJsb0BS-8">
                    <mxGeometry y="86" width="250" height="26" as="geometry"/>
                </mxCell>
                <mxCell id="g-DbUcS__fLuWGJsb0BS-16" value="+ read_body() : string" style="text;strokeColor=none;fillColor=none;align=left;verticalAlign=top;spacingLeft=4;spacingRight=4;overflow=hidden;rotatable=0;points=[[0,0.5],[1,0.5]];portConstraint=eastwest;fontFamily=Courier New;fontColor=#FEFAE0;sketch=1;" vertex="1" parent="g-DbUcS__fLuWGJsb0BS-8">
                    <mxGeometry y="112" width="250" height="32" as="geometry"/>
                </mxCell>
                <mxCell id="hWmXG3tr4zKJoYow7AVW-3" value="친구" style="rounded=1;whiteSpace=wrap;html=1;" vertex="1" parent="AuqJdW4A9jtWU9_Es0bh-1">
                    <mxGeometry x="350" y="670" width="40" height="26" as="geometry"/>
                </mxCell>
                <mxCell id="hWmXG3tr4zKJoYow7AVW-4" value="" style="edgeStyle=orthogonalEdgeStyle;rounded=0;orthogonalLoop=1;jettySize=auto;html=1;endArrow=none;endFill=0;" edge="1" parent="AuqJdW4A9jtWU9_Es0bh-1" source="z06n2Tm9NocWIqekACWy-20" target="hWmXG3tr4zKJoYow7AVW-3">
                    <mxGeometry relative="1" as="geometry">
                        <mxPoint x="280" y="538" as="sourcePoint"/>
                        <mxPoint x="380" y="672" as="targetPoint"/>
                        <Array as="points">
                            <mxPoint x="160" y="683"/>
                        </Array>
                    </mxGeometry>
                </mxCell>
            </root>
        </mxGraphModel>
    </diagram>
    <diagram id="gl_ZacihwbqVTBpL8_R7" name="요청응답 정리!">
        <mxGraphModel dx="880" dy="536" grid="1" gridSize="10" guides="1" tooltips="1" connect="1" arrows="1" fold="1" page="1" pageScale="1" pageWidth="827" pageHeight="1169" math="0" shadow="0">
            <root>
                <mxCell id="87szsWr0lq7RUIaYEZzb-0"/>
                <mxCell id="87szsWr0lq7RUIaYEZzb-1" parent="87szsWr0lq7RUIaYEZzb-0"/>
                <mxCell id="btgbJ4_nWMv-sLu8SH6d-0" value="Server" style="verticalAlign=top;align=left;spacingTop=8;spacingLeft=2;spacingRight=12;shape=cube;size=10;direction=south;fontStyle=4;html=1;" parent="87szsWr0lq7RUIaYEZzb-1" vertex="1">
                    <mxGeometry x="40" y="30" width="350" height="740" as="geometry"/>
                </mxCell>
                <mxCell id="btgbJ4_nWMv-sLu8SH6d-1" value="cl1" style="verticalAlign=top;align=left;spacingTop=8;spacingLeft=2;spacingRight=12;shape=cube;size=10;direction=south;fontStyle=4;html=1;" parent="87szsWr0lq7RUIaYEZzb-1" vertex="1">
                    <mxGeometry x="50" y="90" width="70" height="50" as="geometry"/>
                </mxCell>
                <mxCell id="btgbJ4_nWMv-sLu8SH6d-2" value="cl2" style="verticalAlign=top;align=left;spacingTop=8;spacingLeft=2;spacingRight=12;shape=cube;size=10;direction=south;fontStyle=4;html=1;" parent="87szsWr0lq7RUIaYEZzb-1" vertex="1">
                    <mxGeometry x="110" y="90" width="70" height="50" as="geometry"/>
                </mxCell>
                <mxCell id="btgbJ4_nWMv-sLu8SH6d-3" value="cl3" style="verticalAlign=top;align=left;spacingTop=8;spacingLeft=2;spacingRight=12;shape=cube;size=10;direction=south;fontStyle=4;html=1;" parent="87szsWr0lq7RUIaYEZzb-1" vertex="1">
                    <mxGeometry x="170" y="90" width="70" height="50" as="geometry"/>
                </mxCell>
                <mxCell id="btgbJ4_nWMv-sLu8SH6d-4" value="cl4" style="verticalAlign=top;align=left;spacingTop=8;spacingLeft=2;spacingRight=12;shape=cube;size=10;direction=south;fontStyle=4;html=1;" parent="87szsWr0lq7RUIaYEZzb-1" vertex="1">
                    <mxGeometry x="230" y="90" width="70" height="50" as="geometry"/>
                </mxCell>
                <mxCell id="btgbJ4_nWMv-sLu8SH6d-5" value="" style="endArrow=block;endSize=16;endFill=0;html=1;exitX=0;exitY=0;exitDx=0;exitDy=30;exitPerimeter=0;" parent="87szsWr0lq7RUIaYEZzb-1" source="btgbJ4_nWMv-sLu8SH6d-1" target="btgbJ4_nWMv-sLu8SH6d-6" edge="1">
                    <mxGeometry width="160" relative="1" as="geometry">
                        <mxPoint x="90" y="170" as="sourcePoint"/>
                        <mxPoint x="420" y="110" as="targetPoint"/>
                        <Array as="points">
                            <mxPoint x="270" y="40"/>
                            <mxPoint x="360" y="110"/>
                        </Array>
                    </mxGeometry>
                </mxCell>
                <mxCell id="btgbJ4_nWMv-sLu8SH6d-6" value="Client 1" style="verticalAlign=top;align=left;spacingTop=8;spacingLeft=2;spacingRight=12;shape=cube;size=10;direction=south;fontStyle=4;html=1;" parent="87szsWr0lq7RUIaYEZzb-1" vertex="1">
                    <mxGeometry x="420" y="60" width="360" height="310" as="geometry"/>
                </mxCell>
                <mxCell id="btgbJ4_nWMv-sLu8SH6d-7" value="Response" style="verticalAlign=top;align=left;spacingTop=8;spacingLeft=2;spacingRight=12;shape=cube;size=10;direction=south;fontStyle=4;html=1;" parent="87szsWr0lq7RUIaYEZzb-1" vertex="1">
                    <mxGeometry x="440" y="260" width="110" height="50" as="geometry"/>
                </mxCell>
                <mxCell id="btgbJ4_nWMv-sLu8SH6d-8" value="Request" style="verticalAlign=top;align=left;spacingTop=8;spacingLeft=2;spacingRight=12;shape=cube;size=10;direction=south;fontStyle=4;html=1;" parent="87szsWr0lq7RUIaYEZzb-1" vertex="1">
                    <mxGeometry x="440" y="220" width="110" height="50" as="geometry"/>
                </mxCell>
                <mxCell id="btgbJ4_nWMv-sLu8SH6d-9" value="socket fd" style="html=1;" parent="87szsWr0lq7RUIaYEZzb-1" vertex="1">
                    <mxGeometry x="450" y="90" width="110" height="50" as="geometry"/>
                </mxCell>
                <mxCell id="btgbJ4_nWMv-sLu8SH6d-11" value="read한거 요청메시지 파싱!!!!!!!!!!!!!!!!!!" style="html=1;" parent="87szsWr0lq7RUIaYEZzb-1" vertex="1">
                    <mxGeometry x="470" y="160" width="210" height="30" as="geometry"/>
                </mxCell>
                <mxCell id="sliHQN2LfJ2VvBLw6ICg-3" value="location" style="verticalAlign=top;align=left;spacingTop=8;spacingLeft=2;spacingRight=12;shape=cube;size=10;direction=south;fontStyle=4;html=1;" parent="87szsWr0lq7RUIaYEZzb-1" vertex="1">
                    <mxGeometry x="50" y="250" width="70" height="50" as="geometry"/>
                </mxCell>
                <mxCell id="btgbJ4_nWMv-sLu8SH6d-12" value="Server에 처리 request queue를 가짐&lt;br&gt;&lt;br&gt;request가 준비되면 server의 request queue에 날리고&lt;br&gt;마찬가지로 response 를 받아서 준비가 되면 &lt;br&gt;response queue에다가 올리고 처리" style="html=1;" parent="87szsWr0lq7RUIaYEZzb-1" vertex="1">
                    <mxGeometry x="47.5" y="460" width="320" height="105" as="geometry"/>
                </mxCell>
                <mxCell id="xNli-V9jRXCS5tTs5X66-0" value="request path 에 맞게 location 을 연결&lt;br&gt;그 로케이션 안에 있는 컨피그 정보에 따라서 response 처리&lt;br&gt;&lt;br&gt;Response 객체를 생성해서 정보를 담고 &lt;br&gt;클라이언트에 queue로 넘겨줌" style="html=1;" parent="87szsWr0lq7RUIaYEZzb-1" vertex="1">
                    <mxGeometry x="50" y="300" width="280" height="130" as="geometry"/>
                </mxCell>
                <mxCell id="sliHQN2LfJ2VvBLw6ICg-4" value="resource" style="verticalAlign=top;align=left;spacingTop=8;spacingLeft=2;spacingRight=12;shape=cube;size=10;direction=south;fontStyle=4;html=1;" parent="87szsWr0lq7RUIaYEZzb-1" vertex="1">
                    <mxGeometry x="110" y="250" width="70" height="50" as="geometry"/>
                </mxCell>
                <mxCell id="xNli-V9jRXCS5tTs5X66-1" value="" style="endArrow=block;endSize=16;endFill=0;html=1;" parent="87szsWr0lq7RUIaYEZzb-1" edge="1">
                    <mxGeometry width="160" relative="1" as="geometry">
                        <mxPoint x="480" y="172" as="sourcePoint"/>
                        <mxPoint x="440" y="230" as="targetPoint"/>
                        <Array as="points">
                            <mxPoint x="400" y="200"/>
                        </Array>
                    </mxGeometry>
                </mxCell>
                <mxCell id="xNli-V9jRXCS5tTs5X66-2" value="" style="endArrow=block;endSize=16;endFill=0;html=1;exitX=0;exitY=0;exitDx=30;exitDy=110;exitPerimeter=0;" parent="87szsWr0lq7RUIaYEZzb-1" source="btgbJ4_nWMv-sLu8SH6d-8" edge="1">
                    <mxGeometry width="160" relative="1" as="geometry">
                        <mxPoint x="440" y="232" as="sourcePoint"/>
                        <mxPoint x="330" y="310" as="targetPoint"/>
                        <Array as="points">
                            <mxPoint x="410" y="250"/>
                            <mxPoint x="370" y="270"/>
                        </Array>
                    </mxGeometry>
                </mxCell>
                <mxCell id="xNli-V9jRXCS5tTs5X66-3" value="" style="endArrow=block;endSize=16;endFill=0;html=1;exitX=1.014;exitY=0.338;exitDx=0;exitDy=0;entryX=0;entryY=0;entryDx=30;entryDy=110;entryPerimeter=0;exitPerimeter=0;" parent="87szsWr0lq7RUIaYEZzb-1" source="xNli-V9jRXCS5tTs5X66-0" target="btgbJ4_nWMv-sLu8SH6d-7" edge="1">
                    <mxGeometry width="160" relative="1" as="geometry">
                        <mxPoint x="470" y="312" as="sourcePoint"/>
                        <mxPoint x="410" y="280" as="targetPoint"/>
                        <Array as="points"/>
                    </mxGeometry>
                </mxCell>
                <mxCell id="fiyUs6SicXUrxin-yWdQ-0" value="" style="html=1;" parent="87szsWr0lq7RUIaYEZzb-1" vertex="1">
                    <mxGeometry x="420" y="585" width="320" height="220" as="geometry"/>
                </mxCell>
                <mxCell id="43uLVxTSP9bybyc4Srrg-1" value="" style="verticalAlign=top;align=left;spacingTop=8;spacingLeft=2;spacingRight=12;shape=cube;size=10;direction=south;fontStyle=4;html=1;" parent="87szsWr0lq7RUIaYEZzb-1" vertex="1">
                    <mxGeometry x="50" y="170" width="70" height="50" as="geometry"/>
                </mxCell>
                <mxCell id="-YVlnVBAP0JbdLW8HQ6u-1" value="request 처리 queue ( client )" style="rounded=1;whiteSpace=wrap;html=1;" parent="87szsWr0lq7RUIaYEZzb-1" vertex="1">
                    <mxGeometry x="45" y="640" width="325" height="35" as="geometry"/>
                </mxCell>
                <mxCell id="-YVlnVBAP0JbdLW8HQ6u-3" value="response queue" style="rounded=1;whiteSpace=wrap;html=1;" parent="87szsWr0lq7RUIaYEZzb-1" vertex="1">
                    <mxGeometry x="45" y="690" width="325" height="40" as="geometry"/>
                </mxCell>
                <mxCell id="43uLVxTSP9bybyc4Srrg-2" value="kqueue" style="rounded=1;whiteSpace=wrap;html=1;" parent="87szsWr0lq7RUIaYEZzb-1" vertex="1">
                    <mxGeometry x="45" y="590" width="325" height="35" as="geometry"/>
                </mxCell>
            </root>
        </mxGraphModel>
    </diagram>
</mxfile>